<svg width="24" height="24" viewBox="0 0 24 24" fill="none" xmlns="http://www.w3.org/2000/svg">
<path d="M12.35 3C7.19564 3 3 7.19564 3 12.35C3 12.6917 3.01898 13.0335 3.05695 13.3562C3.07594 13.5176 3.09492 13.6789 3.1234 13.8498C3.15188 14.0207 3.18036 14.1915 3.21832 14.3624C3.57904 16.0046 4.3764 17.4949 5.48701 18.6909C5.66736 18.8903 5.8667 19.0801 6.06604 19.27C6.17995 19.3649 6.29386 19.4693 6.40777 19.5642C6.52168 19.6591 6.63558 19.7541 6.75899 19.8395C7.1197 20.1053 7.49939 20.3521 7.89807 20.5704C8.27777 20.7697 8.66695 20.9501 9.07513 21.102C9.51178 21.2728 9.9769 21.4057 10.4515 21.5007C10.7363 21.5671 11.0401 21.6146 11.3343 21.643C11.6665 21.681 12.0083 21.7 12.35 21.7C12.6917 21.7 13.0335 21.681 13.3657 21.643C13.66 21.6146 13.9637 21.5671 14.2485 21.5007C14.7231 21.4057 15.1787 21.2728 15.6249 21.102C16.033 20.9501 16.4222 20.7697 16.8019 20.5704C17.2006 20.3521 17.5803 20.1148 17.941 19.8395C18.0644 19.7541 18.1783 19.6591 18.2922 19.5642C18.4061 19.4693 18.5201 19.3649 18.634 19.27C18.8333 19.0801 19.0326 18.8903 19.213 18.6909C20.3236 17.4949 21.121 16.0046 21.4817 14.3624C21.4817 14.3529 21.4912 14.3434 21.4912 14.3339C21.5291 14.1441 21.5671 13.9637 21.5956 13.7739C21.6146 13.6125 21.6336 13.4606 21.6525 13.2992C21.681 12.986 21.7 12.6632 21.7 12.35C21.7 7.19564 17.5044 3 12.35 3ZM20.5514 12.8341C20.5514 12.967 20.5324 13.0999 20.5135 13.2328C20.485 13.5176 20.428 13.8118 20.3711 14.0966C20.0293 15.6628 19.2415 17.0582 18.1498 18.1498C18.0644 18.2543 17.96 18.3492 17.8651 18.4251C17.7702 18.5295 17.6752 18.6055 17.5708 18.6814C17.4664 18.7763 17.362 18.8618 17.2576 18.9282C17.1531 19.0137 17.0487 19.0896 16.9348 19.156C16.8304 19.2415 16.7165 19.3174 16.6026 19.3649C16.4127 19.4978 16.2229 19.6022 16.0236 19.6876C15.9666 19.7351 15.9002 19.7636 15.8242 19.792C15.492 19.9534 15.1503 20.0863 14.7895 20.1907C14.6567 20.2382 14.5143 20.2761 14.3624 20.3141C14.2485 20.3426 14.1251 20.3711 14.0017 20.3901C13.4701 20.504 12.9101 20.5609 12.35 20.5609C11.79 20.5609 11.2299 20.504 10.6983 20.3901C10.5749 20.3711 10.4515 20.3426 10.3376 20.3141C10.1952 20.2761 10.0528 20.2382 9.91046 20.1907C9.54975 20.0863 9.20802 19.9534 8.88528 19.792C8.81883 19.7636 8.74289 19.7256 8.67645 19.6876C8.47711 19.6022 8.28726 19.4978 8.09741 19.3649C7.9835 19.2984 7.86959 19.232 7.76518 19.156C7.65127 19.0801 7.54685 19.0042 7.44244 18.9282C7.33802 18.8428 7.2336 18.7669 7.12919 18.6814C7.02477 18.6055 6.92985 18.5295 6.83492 18.4251C6.74 18.3302 6.64508 18.2448 6.55015 18.1498C5.45853 17.0582 4.67066 15.6628 4.32893 14.0966C4.26249 13.8118 4.21503 13.5271 4.18655 13.2328C4.16756 13.0999 4.15807 12.967 4.14858 12.8341C4.14858 12.6727 4.14858 12.5114 4.14858 12.35C4.13909 7.82213 7.82213 4.13909 12.35 4.13909C16.8779 4.13909 20.5609 7.82213 20.5609 12.35C20.5609 12.5114 20.5514 12.6727 20.5514 12.8341Z" fill="#D7282F"/>
<path d="M15.4921 14.2959C15.4921 14.5712 15.4542 14.837 15.3687 15.1122C15.2833 15.3875 15.1504 15.6438 14.9701 15.8716C14.7897 16.1089 14.5524 16.3083 14.2581 16.4886C13.9639 16.669 13.6126 16.8019 13.195 16.8873V18.0454C13.195 18.1118 13.1665 18.1688 13.119 18.2162C13.0716 18.2637 13.0146 18.2922 12.9482 18.2922H11.5908C11.5243 18.2922 11.4674 18.2637 11.4199 18.2162C11.3724 18.1688 11.344 18.1118 11.344 18.0454V16.9443C11.0307 16.9253 10.7459 16.8968 10.4897 16.8588C10.2334 16.8209 9.99605 16.7734 9.77773 16.707C9.71128 16.688 9.65432 16.6595 9.60686 16.6215C9.5594 16.5836 9.54042 16.5266 9.54042 16.4602V15.2546C9.54042 15.1882 9.5594 15.1312 9.60686 15.0838C9.65432 15.0363 9.71128 15.0173 9.77773 15.0173H9.8062C9.9296 15.0363 10.091 15.0553 10.2998 15.0648C10.5086 15.0838 10.7175 15.0933 10.9358 15.1122C11.1541 15.1312 11.3724 15.1407 11.5908 15.1502C11.7996 15.1502 11.9895 15.1597 12.1318 15.1597C12.559 15.1597 12.8533 15.0838 13.0051 14.9414C13.157 14.799 13.2424 14.5807 13.2424 14.2959C13.2424 14.1155 13.1855 13.9637 13.0716 13.8308C12.9577 13.7074 12.7488 13.546 12.4261 13.3561L10.727 12.35C10.4422 12.1791 10.2049 11.9987 10.015 11.8184C9.82519 11.638 9.67331 11.4482 9.56889 11.2488C9.45498 11.0495 9.37905 10.8502 9.33158 10.6413C9.28412 10.4325 9.26514 10.2142 9.26514 9.99584C9.26514 9.72056 9.30311 9.45478 9.36955 9.19848C9.436 8.95168 9.5594 8.72386 9.72077 8.51503C9.88214 8.3062 10.1005 8.13534 10.3663 7.99295C10.632 7.85056 10.9548 7.74615 11.344 7.6797V6.61655C11.344 6.55011 11.3724 6.49315 11.4199 6.44569C11.4674 6.39823 11.5243 6.36975 11.5908 6.36975H12.9482C13.0146 6.36975 13.0716 6.39823 13.119 6.44569C13.1665 6.49315 13.195 6.55011 13.195 6.61655V7.62275C13.5557 7.65122 13.9069 7.6797 14.2391 7.72716C14.5714 7.77462 14.8277 7.81259 14.989 7.86006C15.0555 7.87904 15.1124 7.89803 15.1599 7.93599C15.2074 7.97396 15.2264 8.02143 15.2264 8.08787V9.31239C15.2264 9.37884 15.2074 9.4263 15.1694 9.47376C15.1314 9.51173 15.0745 9.53072 15.008 9.53072H14.9796C14.5904 9.49275 14.1632 9.45478 13.6981 9.43579C13.233 9.40732 12.7868 9.39782 12.3691 9.39782C12.0274 9.39782 11.7806 9.44528 11.6382 9.5497C11.4958 9.65412 11.4199 9.81549 11.4199 10.0528C11.4199 10.2142 11.4769 10.3471 11.5813 10.461C11.6952 10.5844 11.9135 10.7268 12.2363 10.9071L13.8025 11.7614C14.4385 12.1032 14.8751 12.4828 15.1124 12.891C15.3592 13.2992 15.4732 13.7548 15.4732 14.2579L15.4921 14.2959Z" fill="#D7282F"/>
</svg>
