<svg width="64" height="64" viewBox="0 0 64 64" fill="none" xmlns="http://www.w3.org/2000/svg">
<mask id="mask0_2423_10903" style="mask-type:alpha" maskUnits="userSpaceOnUse" x="0" y="0" width="64" height="64">
<rect width="64" height="64" fill="#D9D9D9"/>
</mask>
<g mask="url(#mask0_2423_10903)">
<path d="M31.9997 45.2795C32.6421 45.2795 33.1805 45.0622 33.615 44.6277C34.0496 44.1931 34.2668 43.6547 34.2668 43.0123C34.2668 42.3699 34.0496 41.8315 33.615 41.397C33.1805 40.9624 32.6421 40.7452 31.9997 40.7452C31.3573 40.7452 30.8188 40.9624 30.3843 41.397C29.9498 41.8315 29.7325 42.3699 29.7325 43.0123C29.7325 43.6547 29.9498 44.1931 30.3843 44.6277C30.8188 45.0622 31.3573 45.2795 31.9997 45.2795ZM32.0006 35.0231C32.5974 35.0231 33.0973 34.8214 33.5003 34.4179C33.9034 34.0144 34.1049 33.5144 34.1049 32.9179V20.2862C34.1049 19.6897 33.903 19.1897 33.4994 18.7862C33.0957 18.3827 32.5955 18.181 31.9988 18.181C31.402 18.181 30.9021 18.3827 30.499 18.7862C30.096 19.1897 29.8945 19.6897 29.8945 20.2862V32.9179C29.8945 33.5144 30.0963 34.0144 30.5 34.4179C30.9036 34.8214 31.4039 35.0231 32.0006 35.0231ZM32.0044 58.6668C28.3161 58.6668 24.8494 57.9669 21.6041 56.5672C18.3587 55.1674 15.5357 53.2678 13.1351 50.8682C10.7345 48.4686 8.83395 45.6469 7.43358 42.403C6.0332 39.1592 5.33301 35.6931 5.33301 32.0049C5.33301 28.3166 6.03289 24.8499 7.43266 21.6046C8.83243 18.3592 10.7321 15.5362 13.1316 13.1356C15.5312 10.735 18.3529 8.83444 21.5968 7.43407C24.8407 6.03369 28.3067 5.3335 31.995 5.3335C35.6832 5.3335 39.15 6.03338 42.3953 7.43315C45.6406 8.83292 48.4636 10.7326 50.8642 13.1321C53.2649 15.5317 55.1654 18.3534 56.5658 21.5973C57.9662 24.8412 58.6663 28.3072 58.6663 31.9955C58.6663 35.6837 57.9665 39.1505 56.5667 42.3958C55.1669 45.6411 53.2673 48.4641 50.8677 50.8647C48.4681 53.2654 45.6464 55.1659 42.4025 56.5663C39.1587 57.9666 35.6926 58.6668 32.0044 58.6668ZM31.9997 54.4564C38.2687 54.4564 43.5787 52.2809 47.9295 47.93C52.2804 43.5791 54.4559 38.2692 54.4559 32.0002C54.4559 25.7311 52.2804 20.4212 47.9295 16.0703C43.5787 11.7194 38.2687 9.54396 31.9997 9.54396C25.7306 9.54396 20.4207 11.7194 16.0698 16.0703C11.7189 20.4212 9.54348 25.7311 9.54348 32.0002C9.54348 38.2692 11.7189 43.5791 16.0698 47.93C20.4207 52.2809 25.7306 54.4564 31.9997 54.4564Z" fill="#C80000"/>
</g>
</svg>
