<svg width="21" height="17" viewBox="0 0 21 17" fill="none" xmlns="http://www.w3.org/2000/svg">
<mask id="mask0_1212_11940" style="mask-type:alpha" maskUnits="userSpaceOnUse" x="0" y="0" width="21" height="17">
<ellipse cx="10.6468" cy="8.25" rx="9.70588" ry="8.25" fill="#D9D9D9"/>
</mask>
<g mask="url(#mask0_1212_11940)">
<mask id="mask1_1212_11940" style="mask-type:alpha" maskUnits="userSpaceOnUse" x="3" y="0" width="18" height="17">
<circle cx="12.0625" cy="8.25" r="8.25" fill="#D9D9D9"/>
</mask>
<g mask="url(#mask1_1212_11940)">
<path d="M-0.725098 -1.6499H24.2064V17.1158H-0.725098V-1.6499Z" fill="#003399"/>
<path d="M12.1593 1.75476L11.8823 2.68146L12.344 2.77413L12.1593 1.75476Z" fill="#FFCC00"/>
<path d="M12.159 1.75476L12.436 2.68146L11.9743 2.77413L12.159 1.75476Z" fill="#FFCC00"/>
<path d="M13.0375 2.3947L12.0736 2.41746L12.1281 2.88629L13.0375 2.3947Z" fill="#FFCC00"/>
<path d="M13.0372 2.39449L12.244 2.94542L12.0139 2.53396L13.0372 2.39449Z" fill="#FFCC00"/>
<path d="M12.7015 3.43173L12.3832 2.51869L11.9552 2.71631L12.7015 3.43173Z" fill="#FFCC00"/>
<path d="M12.7018 3.43155L11.935 2.84558L12.2545 2.49806L12.7018 3.43155Z" fill="#FFCC00"/>
<path d="M11.2808 2.39384L12.2447 2.41661L12.1903 2.88543L11.2808 2.39384Z" fill="#FFCC00"/>
<path d="M11.2812 2.39388L12.0743 2.94481L12.3045 2.53335L11.2812 2.39388Z" fill="#FFCC00"/>
<path d="M11.6168 3.43161L11.9351 2.51857L12.3631 2.71619L11.6168 3.43161Z" fill="#FFCC00"/>
<path d="M11.617 3.4313L12.3838 2.84534L12.0643 2.49781L11.617 3.4313Z" fill="#FFCC00"/>
<path d="M12.1598 12.8756L11.8828 13.8023L12.3445 13.895L12.1598 12.8756Z" fill="#FFCC00"/>
<path d="M12.16 12.8755L12.437 13.8022L11.9753 13.8949L12.16 12.8755Z" fill="#FFCC00"/>
<path d="M13.038 13.5159L12.0741 13.5387L12.1286 14.0075L13.038 13.5159Z" fill="#FFCC00"/>
<path d="M13.0377 13.5162L12.2445 14.0671L12.0144 13.6557L13.0377 13.5162Z" fill="#FFCC00"/>
<path d="M12.7025 14.5532L12.3842 13.6401L11.9562 13.8378L12.7025 14.5532Z" fill="#FFCC00"/>
<path d="M12.7028 14.5525L11.936 13.9666L12.2555 13.619L12.7028 14.5525Z" fill="#FFCC00"/>
<path d="M11.2813 13.5151L12.2452 13.5378L12.1908 14.0067L11.2813 13.5151Z" fill="#FFCC00"/>
<path d="M11.2817 13.5153L12.0748 14.0663L12.305 13.6548L11.2817 13.5153Z" fill="#FFCC00"/>
<path d="M11.6173 14.5514L11.9356 13.6383L12.3636 13.8359L11.6173 14.5514Z" fill="#FFCC00"/>
<path d="M11.6166 14.5519L12.3833 13.9659L12.0638 13.6184L11.6166 14.5519Z" fill="#FFCC00"/>
<path d="M6.6193 7.31445L6.34229 8.24115L6.80398 8.33382L6.6193 7.31445Z" fill="#FFCC00"/>
<path d="M6.61898 7.31445L6.896 8.24115L6.4343 8.33382L6.61898 7.31445Z" fill="#FFCC00"/>
<path d="M7.50043 7.9561L6.53652 7.97887L6.59098 8.44769L7.50043 7.9561Z" fill="#FFCC00"/>
<path d="M7.50006 7.95638L6.70693 8.50731L6.47676 8.09585L7.50006 7.95638Z" fill="#FFCC00"/>
<path d="M7.16099 8.99228L6.84272 8.07924L6.41469 8.27686L7.16099 8.99228Z" fill="#FFCC00"/>
<path d="M7.16128 8.99185L6.39449 8.40589L6.71401 8.05836L7.16128 8.99185Z" fill="#FFCC00"/>
<path d="M5.73932 7.95476L6.70323 7.97752L6.64877 8.44635L5.73932 7.95476Z" fill="#FFCC00"/>
<path d="M5.7392 7.95528L6.53233 8.50621L6.76249 8.09475L5.7392 7.95528Z" fill="#FFCC00"/>
<path d="M6.07534 8.99142L6.39361 8.07838L6.82164 8.276L6.07534 8.99142Z" fill="#FFCC00"/>
<path d="M6.07603 8.99136L6.84282 8.4054L6.5233 8.05787L6.07603 8.99136Z" fill="#FFCC00"/>
<path d="M8.91391 4.21706L9.6807 3.63111L9.36116 3.28358L8.91391 4.21706Z" fill="#FFCC00"/>
<path d="M8.91421 4.21714L9.23245 3.30409L9.66049 3.50173L8.91421 4.21714Z" fill="#FFCC00"/>
<path d="M8.57865 3.18095L9.37153 3.73182L9.60184 3.32009L8.57865 3.18095Z" fill="#FFCC00"/>
<path d="M8.57808 3.18074L9.54194 3.20312L9.4873 3.67218L8.57808 3.18074Z" fill="#FFCC00"/>
<path d="M9.45588 2.54154L9.17971 3.46785L9.64089 3.56075L9.45588 2.54154Z" fill="#FFCC00"/>
<path d="M9.45672 2.54159L9.73391 3.46821L9.27282 3.56061L9.45672 2.54159Z" fill="#FFCC00"/>
<path d="M9.99886 4.21683L9.23197 3.63019L9.55094 3.28304L9.99886 4.21683Z" fill="#FFCC00"/>
<path d="M9.9982 4.2165L9.6792 3.30331L9.25162 3.50046L9.9982 4.2165Z" fill="#FFCC00"/>
<path d="M10.3352 3.18114L9.54283 3.73182L9.31219 3.31954L10.3352 3.18114Z" fill="#FFCC00"/>
<path d="M10.3357 3.18043L9.37194 3.20206L9.42696 3.67157L10.3357 3.18043Z" fill="#FFCC00"/>
<path d="M7.94614 6.2811L7.62789 5.36806L7.19986 5.56569L7.94614 6.2811Z" fill="#FFCC00"/>
<path d="M7.94693 6.27981L7.18014 5.69386L7.49968 5.34632L7.94693 6.27981Z" fill="#FFCC00"/>
<path d="M6.86002 6.28092L7.62692 5.69428L7.30795 5.34713L6.86002 6.28092Z" fill="#FFCC00"/>
<path d="M6.85922 6.28096L7.17823 5.36777L7.6058 5.56491L6.85922 6.28096Z" fill="#FFCC00"/>
<path d="M6.52467 5.24413L7.31703 5.79481L7.54767 5.38253L6.52467 5.24413Z" fill="#FFCC00"/>
<path d="M6.52417 5.24342L7.48792 5.26504L7.4329 5.73456L6.52417 5.24342Z" fill="#FFCC00"/>
<path d="M8.28268 5.24321L7.4898 5.79408L7.25949 5.38235L8.28268 5.24321Z" fill="#FFCC00"/>
<path d="M8.28227 5.243L7.31841 5.26538L7.37306 5.73443L8.28227 5.243Z" fill="#FFCC00"/>
<path d="M7.40398 4.6033L7.68016 5.52962L7.21897 5.62252L7.40398 4.6033Z" fill="#FFCC00"/>
<path d="M7.40412 4.60348L7.12693 5.5301L7.58802 5.6225L7.40412 4.60348Z" fill="#FFCC00"/>
<path d="M8.28257 10.8166L7.31862 10.8396L7.37293 11.3083L8.28257 10.8166Z" fill="#FFCC00"/>
<path d="M8.28286 10.8171L7.48952 11.3681L7.25948 10.9569L8.28286 10.8171Z" fill="#FFCC00"/>
<path d="M7.94589 11.8524L7.62826 10.9394L7.19984 11.1375L7.94589 11.8524Z" fill="#FFCC00"/>
<path d="M7.94571 11.852L7.17906 11.2666L7.49904 10.9187L7.94571 11.852Z" fill="#FFCC00"/>
<path d="M6.86012 11.8534L7.62713 11.2666L7.30834 10.9196L6.86012 11.8534Z" fill="#FFCC00"/>
<path d="M6.86009 11.8532L7.17937 10.94L7.60678 11.137L6.86009 11.8532Z" fill="#FFCC00"/>
<path d="M7.40486 10.177L7.68005 11.1028L7.21945 11.196L7.40486 10.177Z" fill="#FFCC00"/>
<path d="M7.40471 10.177L7.12732 11.1036L7.58769 11.1956L7.40471 10.177Z" fill="#FFCC00"/>
<path d="M6.5261 10.8175L7.48984 10.8391L7.43479 11.3087L6.5261 10.8175Z" fill="#FFCC00"/>
<path d="M6.52663 10.8189L7.31894 11.3696L7.5496 10.9573L6.52663 10.8189Z" fill="#FFCC00"/>
<path d="M10.2879 12.6805L9.32399 12.7035L9.3783 13.1722L10.2879 12.6805Z" fill="#FFCC00"/>
<path d="M10.2877 12.6804L9.4944 13.2314L9.26436 12.8201L10.2877 12.6804Z" fill="#FFCC00"/>
<path d="M9.95224 13.7172L9.63461 12.8043L9.20619 13.0024L9.95224 13.7172Z" fill="#FFCC00"/>
<path d="M9.95304 13.7178L9.18638 13.1324L9.50637 12.7846L9.95304 13.7178Z" fill="#FFCC00"/>
<path d="M8.86647 13.7174L9.63348 13.1306L9.31469 12.7836L8.86647 13.7174Z" fill="#FFCC00"/>
<path d="M8.86693 13.7168L9.1862 12.8035L9.61361 13.0005L8.86693 13.7168Z" fill="#FFCC00"/>
<path d="M9.40975 12.0403L9.68493 12.9661L9.22434 13.0593L9.40975 12.0403Z" fill="#FFCC00"/>
<path d="M9.40959 12.0406L9.1322 12.9671L9.59257 13.0591L9.40959 12.0406Z" fill="#FFCC00"/>
<path d="M8.53001 12.6802L9.49375 12.7018L9.43869 13.1713L8.53001 12.6802Z" fill="#FFCC00"/>
<path d="M8.53005 12.6798L9.32236 13.2304L9.55302 12.8181L8.53005 12.6798Z" fill="#FFCC00"/>
<path d="M17.7 7.31519L17.9771 8.24188L17.5154 8.33455L17.7 7.31519Z" fill="#FFCC00"/>
<path d="M17.6994 7.31519L17.4224 8.24188L17.8841 8.33455L17.6994 7.31519Z" fill="#FFCC00"/>
<path d="M16.8218 7.95549L17.7857 7.97826L17.7313 8.44708L16.8218 7.95549Z" fill="#FFCC00"/>
<path d="M16.8217 7.95589L17.6148 8.50682L17.845 8.09536L16.8217 7.95589Z" fill="#FFCC00"/>
<path d="M17.1569 8.99264L17.4752 8.0796L17.9032 8.27722L17.1569 8.99264Z" fill="#FFCC00"/>
<path d="M17.1566 8.99258L17.9234 8.40662L17.6039 8.05909L17.1566 8.99258Z" fill="#FFCC00"/>
<path d="M18.5781 7.95488L17.6142 7.97765L17.6686 8.44647L18.5781 7.95488Z" fill="#FFCC00"/>
<path d="M18.5782 7.95552L17.7851 8.50645L17.5549 8.095L18.5782 7.95552Z" fill="#FFCC00"/>
<path d="M18.242 8.99167L17.9238 8.07863L17.4957 8.27625L18.242 8.99167Z" fill="#FFCC00"/>
<path d="M18.2428 8.99197L17.476 8.40601L17.7956 8.05848L18.2428 8.99197Z" fill="#FFCC00"/>
<path d="M15.4049 4.21889L14.6382 3.63295L14.9577 3.28541L15.4049 4.21889Z" fill="#FFCC00"/>
<path d="M15.4051 4.21885L15.0869 3.3058L14.6588 3.50343L15.4051 4.21885Z" fill="#FFCC00"/>
<path d="M15.7402 3.18254L14.9473 3.73341L14.717 3.32168L15.7402 3.18254Z" fill="#FFCC00"/>
<path d="M15.7403 3.18245L14.7764 3.20483L14.8311 3.67389L15.7403 3.18245Z" fill="#FFCC00"/>
<path d="M14.863 2.54263L15.1391 3.46895L14.678 3.56185L14.863 2.54263Z" fill="#FFCC00"/>
<path d="M14.8631 2.54245L14.5859 3.46907L15.047 3.56146L14.8631 2.54245Z" fill="#FFCC00"/>
<path d="M14.3195 4.2194L15.0864 3.63275L14.7674 3.28561L14.3195 4.2194Z" fill="#FFCC00"/>
<path d="M14.3192 4.22029L14.6382 3.3071L15.0658 3.50424L14.3192 4.22029Z" fill="#FFCC00"/>
<path d="M13.9841 3.18249L14.7765 3.73316L15.0071 3.32088L13.9841 3.18249Z" fill="#FFCC00"/>
<path d="M13.9851 3.18226L14.9489 3.20389L14.8938 3.6734L13.9851 3.18226Z" fill="#FFCC00"/>
<path d="M16.3727 6.2811L16.691 5.36806L17.119 5.56569L16.3727 6.2811Z" fill="#FFCC00"/>
<path d="M16.3734 6.28066L17.1402 5.69471L16.8206 5.34718L16.3734 6.28066Z" fill="#FFCC00"/>
<path d="M17.4588 6.2808L16.6919 5.69416L17.0109 5.34701L17.4588 6.2808Z" fill="#FFCC00"/>
<path d="M17.4586 6.28023L17.1396 5.36703L16.7121 5.56418L17.4586 6.28023Z" fill="#FFCC00"/>
<path d="M17.7937 5.2445L17.0013 5.79517L16.7707 5.38289L17.7937 5.2445Z" fill="#FFCC00"/>
<path d="M17.7932 5.24415L16.8295 5.26578L16.8845 5.73529L17.7932 5.24415Z" fill="#FFCC00"/>
<path d="M16.0367 5.24443L16.8295 5.7953L17.0598 5.38357L16.0367 5.24443Z" fill="#FFCC00"/>
<path d="M16.0366 5.24385L17.0004 5.26623L16.9458 5.73529L16.0366 5.24385Z" fill="#FFCC00"/>
<path d="M16.9149 4.6044L16.6387 5.53071L17.0999 5.62362L16.9149 4.6044Z" fill="#FFCC00"/>
<path d="M16.9147 4.60409L17.1919 5.53071L16.7308 5.62311L16.9147 4.60409Z" fill="#FFCC00"/>
<path d="M16.0358 10.8161L16.9997 10.8392L16.9454 11.3078L16.0358 10.8161Z" fill="#FFCC00"/>
<path d="M16.035 10.8166L16.8284 11.3676L17.0584 10.9564L16.035 10.8166Z" fill="#FFCC00"/>
<path d="M16.372 11.8524L16.6896 10.9394L17.118 11.1375L16.372 11.8524Z" fill="#FFCC00"/>
<path d="M16.3717 11.8521L17.1383 11.2667L16.8183 10.9188L16.3717 11.8521Z" fill="#FFCC00"/>
<path d="M17.4573 11.8524L16.6903 11.2656L17.009 10.9186L17.4573 11.8524Z" fill="#FFCC00"/>
<path d="M17.4568 11.8524L17.1375 10.9392L16.7101 11.1361L17.4568 11.8524Z" fill="#FFCC00"/>
<path d="M16.914 10.1755L16.6388 11.1014L17.0994 11.1945L16.914 10.1755Z" fill="#FFCC00"/>
<path d="M16.9141 10.1752L17.1915 11.1017L16.7312 11.1938L16.9141 10.1752Z" fill="#FFCC00"/>
<path d="M17.7927 10.8161L16.829 10.8376L16.8841 11.3072L17.7927 10.8161Z" fill="#FFCC00"/>
<path d="M17.7927 10.8161L17.0004 11.3668L16.7697 10.9545L17.7927 10.8161Z" fill="#FFCC00"/>
<path d="M14.0324 12.6816L14.9963 12.7046L14.942 13.1733L14.0324 12.6816Z" fill="#FFCC00"/>
<path d="M14.0326 12.6814L14.8259 13.2323L15.056 12.8211L14.0326 12.6814Z" fill="#FFCC00"/>
<path d="M14.3671 13.7167L14.6847 12.8038L15.1131 13.0019L14.3671 13.7167Z" fill="#FFCC00"/>
<path d="M14.3673 13.7178L15.1339 13.1324L14.8139 12.7846L14.3673 13.7178Z" fill="#FFCC00"/>
<path d="M15.4529 13.7191L14.6859 13.1323L15.0046 12.7853L15.4529 13.7191Z" fill="#FFCC00"/>
<path d="M15.4529 13.7178L15.1336 12.8045L14.7062 13.0015L15.4529 13.7178Z" fill="#FFCC00"/>
<path d="M14.9101 12.0431L14.6349 12.9689L15.0955 13.0621L14.9101 12.0431Z" fill="#FFCC00"/>
<path d="M14.9102 12.0436L15.1876 12.9701L14.7273 13.0622L14.9102 12.0436Z" fill="#FFCC00"/>
<path d="M15.7898 12.683L14.8261 12.7046L14.8811 13.1741L15.7898 12.683Z" fill="#FFCC00"/>
<path d="M15.7903 12.6832L14.998 13.2339L14.7673 12.8215L15.7903 12.6832Z" fill="#FFCC00"/>
</g>
</g>
</svg>
