<svg width="16" height="16" viewBox="0 0 16 16" fill="none" xmlns="http://www.w3.org/2000/svg">
<g clip-path="url(#clip0_1895_10697)">
<mask id="mask0_1895_10697" style="mask-type:alpha" maskUnits="userSpaceOnUse" x="0" y="0" width="16" height="16">
<rect width="16" height="16" fill="#D9D9D9"/>
</mask>
<g mask="url(#mask0_1895_10697)">
<path d="M10.5154 8.64867L9.76672 7.89997C9.88039 7.3068 9.72441 6.80082 9.29877 6.38202C8.87312 5.96322 8.36244 5.80253 7.76672 5.89997L7.01802 5.15127C7.17272 5.07947 7.3319 5.02776 7.49557 4.99613C7.65924 4.96451 7.8274 4.9487 8.00005 4.9487C8.75645 4.9487 9.39854 5.21259 9.92632 5.74037C10.4541 6.26815 10.718 6.91023 10.718 7.66663C10.718 7.83928 10.7032 8.00744 10.6737 8.17112C10.6443 8.33478 10.5915 8.49397 10.5154 8.64867ZM12.6359 10.723L11.9 10.0333C12.3223 9.71108 12.7 9.35275 13.0334 8.9583C13.3667 8.56386 13.6445 8.1333 13.8667 7.66663C13.3112 6.54441 12.5084 5.65275 11.4584 4.99163C10.4084 4.33052 9.2556 3.99997 8.00005 3.99997C7.67783 3.99997 7.36394 4.02219 7.05838 4.06663C6.75283 4.11108 6.44449 4.17775 6.13338 4.26663L5.35648 3.48973C5.7804 3.32221 6.21267 3.19871 6.65327 3.11922C7.09385 3.03973 7.54278 2.99998 8.00005 2.99998C9.43252 2.99998 10.7483 3.37221 11.9475 4.11665C13.1466 4.86109 14.0688 5.86836 14.7141 7.13843C14.7586 7.22304 14.7908 7.3083 14.8109 7.3942C14.831 7.4801 14.841 7.57091 14.841 7.66663C14.841 7.76236 14.8327 7.85317 14.816 7.93907C14.7994 8.02497 14.7688 8.11022 14.7244 8.19483C14.4885 8.69654 14.1923 9.15979 13.8359 9.58457C13.4795 10.0094 13.0795 10.3888 12.6359 10.723ZM8.00005 12.3333C6.59664 12.3333 5.31032 11.9583 4.1411 11.2083C2.97187 10.4583 2.04238 9.47047 1.35263 8.24483C1.29708 8.16022 1.25648 8.06835 1.23085 7.9692C1.20521 7.87006 1.19238 7.7692 1.19238 7.66663C1.19238 7.56407 1.20349 7.46492 1.22572 7.3692C1.24794 7.27348 1.28683 7.17989 1.34238 7.08843C1.59025 6.63544 1.87102 6.20403 2.1847 5.7942C2.49838 5.38437 2.85906 5.01706 3.26675 4.69228L1.76162 3.17688C1.6693 3.07774 1.62379 2.96001 1.62508 2.82368C1.62636 2.68736 1.67529 2.57091 1.77187 2.47433C1.86844 2.37776 1.98554 2.32947 2.12315 2.32947C2.26075 2.32947 2.37784 2.37776 2.47442 2.47433L13.5257 13.5256C13.618 13.6179 13.6669 13.7322 13.6725 13.8685C13.678 14.0049 13.6291 14.1247 13.5257 14.2282C13.4291 14.3247 13.312 14.373 13.1744 14.373C13.0368 14.373 12.9197 14.3247 12.8231 14.2282L10.477 11.9025C10.0838 12.0546 9.67976 12.1645 9.2648 12.232C8.84984 12.2995 8.42826 12.3333 8.00005 12.3333ZM3.9693 5.39482C3.5787 5.69653 3.22763 6.03777 2.91608 6.41855C2.60454 6.79932 2.34364 7.21534 2.13338 7.66663C2.68894 8.78886 3.49172 9.68052 4.54172 10.3416C5.59172 11.0027 6.74449 11.3333 8.00005 11.3333C8.28638 11.3333 8.56823 11.3141 8.84558 11.2756C9.12294 11.2371 9.39837 11.1777 9.67187 11.0974L8.82827 10.2333C8.69322 10.2923 8.55839 10.3322 8.42377 10.3532C8.28916 10.3741 8.14792 10.3846 8.00005 10.3846C7.24365 10.3846 6.60156 10.1207 6.07378 9.5929C5.546 9.06512 5.28212 8.42303 5.28212 7.66663C5.28212 7.51877 5.29365 7.37753 5.31673 7.24292C5.33981 7.1083 5.3787 6.97346 5.4334 6.83842L3.9693 5.39482Z" fill="#707070"/>
</g>
</g>
<defs>
<clipPath id="clip0_1895_10697">
<rect width="15.1458" height="16" fill="white"/>
</clipPath>
</defs>
</svg>
